<?xml version="1.0" encoding="UTF-8" standalone="no"?>
<!DOCTYPE svg PUBLIC "-//W3C//DTD SVG 1.1//EN"
 "http://www.w3.org/Graphics/SVG/1.1/DTD/svg11.dtd">
<!-- Generated by graphviz version 2.50.0 (0)
 -->
<!-- Pages: 1 -->
<svg width="222pt" height="448pt"
 viewBox="0.00 0.00 222.00 448.00" xmlns="http://www.w3.org/2000/svg" xmlns:xlink="http://www.w3.org/1999/xlink">
<g id="graph0" class="graph" transform="scale(1 1) rotate(0) translate(4 444)">
<polygon fill="white" stroke="transparent" points="-4,4 -4,-444 218,-444 218,4 -4,4"/>
<!-- 5957937056 -->
<g id="node1" class="node">
<title>5957937056</title>
<polygon fill="#caff70" stroke="black" points="133.5,-31 79.5,-31 79.5,0 133.5,0 133.5,-31"/>
<text text-anchor="middle" x="106.5" y="-7" font-family="monospace" font-size="10.00"> ()</text>
</g>
<!-- 5957778352 -->
<g id="node2" class="node">
<title>5957778352</title>
<polygon fill="lightgrey" stroke="black" points="154,-86 59,-86 59,-67 154,-67 154,-86"/>
<text text-anchor="middle" x="106.5" y="-74" font-family="monospace" font-size="10.00">MeanBackward0</text>
</g>
<!-- 5957778352&#45;&gt;5957937056 -->
<g id="edge9" class="edge">
<title>5957778352&#45;&gt;5957937056</title>
<path fill="none" stroke="black" d="M106.5,-66.79C106.5,-60.07 106.5,-50.4 106.5,-41.34"/>
<polygon fill="black" stroke="black" points="110,-41.19 106.5,-31.19 103,-41.19 110,-41.19"/>
</g>
<!-- 5957777632 -->
<g id="node3" class="node">
<title>5957777632</title>
<polygon fill="lightgrey" stroke="black" points="151,-141 62,-141 62,-122 151,-122 151,-141"/>
<text text-anchor="middle" x="106.5" y="-129" font-family="monospace" font-size="10.00">PowBackward0</text>
</g>
<!-- 5957777632&#45;&gt;5957778352 -->
<g id="edge1" class="edge">
<title>5957777632&#45;&gt;5957778352</title>
<path fill="none" stroke="black" d="M106.5,-121.75C106.5,-114.8 106.5,-104.85 106.5,-96.13"/>
<polygon fill="black" stroke="black" points="110,-96.09 106.5,-86.09 103,-96.09 110,-96.09"/>
</g>
<!-- 5957775952 -->
<g id="node4" class="node">
<title>5957775952</title>
<polygon fill="lightgrey" stroke="black" points="151,-196 62,-196 62,-177 151,-177 151,-196"/>
<text text-anchor="middle" x="106.5" y="-184" font-family="monospace" font-size="10.00">SubBackward0</text>
</g>
<!-- 5957775952&#45;&gt;5957777632 -->
<g id="edge2" class="edge">
<title>5957775952&#45;&gt;5957777632</title>
<path fill="none" stroke="black" d="M106.5,-176.75C106.5,-169.8 106.5,-159.85 106.5,-151.13"/>
<polygon fill="black" stroke="black" points="110,-151.09 106.5,-141.09 103,-151.09 110,-151.09"/>
</g>
<!-- 5743655184 -->
<g id="node5" class="node">
<title>5743655184</title>
<polygon fill="lightgrey" stroke="black" points="151,-251 62,-251 62,-232 151,-232 151,-251"/>
<text text-anchor="middle" x="106.5" y="-239" font-family="monospace" font-size="10.00">AddBackward0</text>
</g>
<!-- 5743655184&#45;&gt;5957775952 -->
<g id="edge3" class="edge">
<title>5743655184&#45;&gt;5957775952</title>
<path fill="none" stroke="black" d="M106.5,-231.75C106.5,-224.8 106.5,-214.85 106.5,-206.13"/>
<polygon fill="black" stroke="black" points="110,-206.09 106.5,-196.09 103,-206.09 110,-206.09"/>
</g>
<!-- 4573703200 -->
<g id="node6" class="node">
<title>4573703200</title>
<polygon fill="lightgrey" stroke="black" points="101,-306 0,-306 0,-287 101,-287 101,-306"/>
<text text-anchor="middle" x="50.5" y="-294" font-family="monospace" font-size="10.00">AccumulateGrad</text>
</g>
<!-- 4573703200&#45;&gt;5743655184 -->
<g id="edge4" class="edge">
<title>4573703200&#45;&gt;5743655184</title>
<path fill="none" stroke="black" d="M59.5,-286.98C67.69,-279.23 80.01,-267.58 89.97,-258.14"/>
<polygon fill="black" stroke="black" points="92.48,-260.59 97.34,-251.17 87.67,-255.5 92.48,-260.59"/>
</g>
<!-- 5910869984 -->
<g id="node7" class="node">
<title>5910869984</title>
<polygon fill="lightblue" stroke="black" points="77.5,-373 23.5,-373 23.5,-342 77.5,-342 77.5,-373"/>
<text text-anchor="middle" x="50.5" y="-349" font-family="monospace" font-size="10.00"> (1)</text>
</g>
<!-- 5910869984&#45;&gt;4573703200 -->
<g id="edge5" class="edge">
<title>5910869984&#45;&gt;4573703200</title>
<path fill="none" stroke="black" d="M50.5,-341.92C50.5,-334.22 50.5,-324.69 50.5,-316.43"/>
<polygon fill="black" stroke="black" points="54,-316.25 50.5,-306.25 47,-316.25 54,-316.25"/>
</g>
<!-- 4573703584 -->
<g id="node8" class="node">
<title>4573703584</title>
<polygon fill="lightgrey" stroke="black" points="208,-306 119,-306 119,-287 208,-287 208,-306"/>
<text text-anchor="middle" x="163.5" y="-294" font-family="monospace" font-size="10.00">MulBackward0</text>
</g>
<!-- 4573703584&#45;&gt;5743655184 -->
<g id="edge6" class="edge">
<title>4573703584&#45;&gt;5743655184</title>
<path fill="none" stroke="black" d="M154.34,-286.98C146,-279.23 133.47,-267.58 123.32,-258.14"/>
<polygon fill="black" stroke="black" points="125.53,-255.42 115.82,-251.17 120.76,-260.54 125.53,-255.42"/>
</g>
<!-- 5957778400 -->
<g id="node9" class="node">
<title>5957778400</title>
<polygon fill="lightgrey" stroke="black" points="214,-367 113,-367 113,-348 214,-348 214,-367"/>
<text text-anchor="middle" x="163.5" y="-355" font-family="monospace" font-size="10.00">AccumulateGrad</text>
</g>
<!-- 5957778400&#45;&gt;4573703584 -->
<g id="edge7" class="edge">
<title>5957778400&#45;&gt;4573703584</title>
<path fill="none" stroke="black" d="M163.5,-347.79C163.5,-339.6 163.5,-327.06 163.5,-316.55"/>
<polygon fill="black" stroke="black" points="167,-316.24 163.5,-306.24 160,-316.24 167,-316.24"/>
</g>
<!-- 5754996912 -->
<g id="node10" class="node">
<title>5754996912</title>
<polygon fill="lightblue" stroke="black" points="190.5,-440 136.5,-440 136.5,-409 190.5,-409 190.5,-440"/>
<text text-anchor="middle" x="163.5" y="-416" font-family="monospace" font-size="10.00"> (1)</text>
</g>
<!-- 5754996912&#45;&gt;5957778400 -->
<g id="edge8" class="edge">
<title>5754996912&#45;&gt;5957778400</title>
<path fill="none" stroke="black" d="M163.5,-408.75C163.5,-399.39 163.5,-387.19 163.5,-377.16"/>
<polygon fill="black" stroke="black" points="167,-377.02 163.5,-367.02 160,-377.02 167,-377.02"/>
</g>
</g>
</svg>
