<?xml version="1.0" encoding="UTF-8" standalone="no"?>
<!DOCTYPE svg PUBLIC "-//W3C//DTD SVG 1.1//EN"
 "http://www.w3.org/Graphics/SVG/1.1/DTD/svg11.dtd">
<!-- Generated by graphviz version 2.50.0 (0)
 -->
<!-- Pages: 1 -->
<svg width="222pt" height="338pt"
 viewBox="0.00 0.00 222.00 338.00" xmlns="http://www.w3.org/2000/svg" xmlns:xlink="http://www.w3.org/1999/xlink">
<g id="graph0" class="graph" transform="scale(1 1) rotate(0) translate(4 334)">
<polygon fill="white" stroke="transparent" points="-4,4 -4,-334 218,-334 218,4 -4,4"/>
<!-- 5754997872 -->
<g id="node1" class="node">
<title>5754997872</title>
<polygon fill="#caff70" stroke="black" points="139,-31 74,-31 74,0 139,0 139,-31"/>
<text text-anchor="middle" x="106.5" y="-7" font-family="monospace" font-size="10.00"> (80, 1)</text>
</g>
<!-- 5957775952 -->
<g id="node2" class="node">
<title>5957775952</title>
<polygon fill="lightgrey" stroke="black" points="151,-86 62,-86 62,-67 151,-67 151,-86"/>
<text text-anchor="middle" x="106.5" y="-74" font-family="monospace" font-size="10.00">SubBackward0</text>
</g>
<!-- 5957775952&#45;&gt;5754997872 -->
<g id="edge7" class="edge">
<title>5957775952&#45;&gt;5754997872</title>
<path fill="none" stroke="black" d="M106.5,-66.79C106.5,-60.07 106.5,-50.4 106.5,-41.34"/>
<polygon fill="black" stroke="black" points="110,-41.19 106.5,-31.19 103,-41.19 110,-41.19"/>
</g>
<!-- 5743655184 -->
<g id="node3" class="node">
<title>5743655184</title>
<polygon fill="lightgrey" stroke="black" points="151,-141 62,-141 62,-122 151,-122 151,-141"/>
<text text-anchor="middle" x="106.5" y="-129" font-family="monospace" font-size="10.00">AddBackward0</text>
</g>
<!-- 5743655184&#45;&gt;5957775952 -->
<g id="edge1" class="edge">
<title>5743655184&#45;&gt;5957775952</title>
<path fill="none" stroke="black" d="M106.5,-121.75C106.5,-114.8 106.5,-104.85 106.5,-96.13"/>
<polygon fill="black" stroke="black" points="110,-96.09 106.5,-86.09 103,-96.09 110,-96.09"/>
</g>
<!-- 4573703200 -->
<g id="node4" class="node">
<title>4573703200</title>
<polygon fill="lightgrey" stroke="black" points="101,-196 0,-196 0,-177 101,-177 101,-196"/>
<text text-anchor="middle" x="50.5" y="-184" font-family="monospace" font-size="10.00">AccumulateGrad</text>
</g>
<!-- 4573703200&#45;&gt;5743655184 -->
<g id="edge2" class="edge">
<title>4573703200&#45;&gt;5743655184</title>
<path fill="none" stroke="black" d="M59.5,-176.98C67.69,-169.23 80.01,-157.58 89.97,-148.14"/>
<polygon fill="black" stroke="black" points="92.48,-150.59 97.34,-141.17 87.67,-145.5 92.48,-150.59"/>
</g>
<!-- 5910869984 -->
<g id="node5" class="node">
<title>5910869984</title>
<polygon fill="lightblue" stroke="black" points="77.5,-263 23.5,-263 23.5,-232 77.5,-232 77.5,-263"/>
<text text-anchor="middle" x="50.5" y="-239" font-family="monospace" font-size="10.00"> (1)</text>
</g>
<!-- 5910869984&#45;&gt;4573703200 -->
<g id="edge3" class="edge">
<title>5910869984&#45;&gt;4573703200</title>
<path fill="none" stroke="black" d="M50.5,-231.92C50.5,-224.22 50.5,-214.69 50.5,-206.43"/>
<polygon fill="black" stroke="black" points="54,-206.25 50.5,-196.25 47,-206.25 54,-206.25"/>
</g>
<!-- 4573703584 -->
<g id="node6" class="node">
<title>4573703584</title>
<polygon fill="lightgrey" stroke="black" points="208,-196 119,-196 119,-177 208,-177 208,-196"/>
<text text-anchor="middle" x="163.5" y="-184" font-family="monospace" font-size="10.00">MulBackward0</text>
</g>
<!-- 4573703584&#45;&gt;5743655184 -->
<g id="edge4" class="edge">
<title>4573703584&#45;&gt;5743655184</title>
<path fill="none" stroke="black" d="M154.34,-176.98C146,-169.23 133.47,-157.58 123.32,-148.14"/>
<polygon fill="black" stroke="black" points="125.53,-145.42 115.82,-141.17 120.76,-150.54 125.53,-145.42"/>
</g>
<!-- 5957778400 -->
<g id="node7" class="node">
<title>5957778400</title>
<polygon fill="lightgrey" stroke="black" points="214,-257 113,-257 113,-238 214,-238 214,-257"/>
<text text-anchor="middle" x="163.5" y="-245" font-family="monospace" font-size="10.00">AccumulateGrad</text>
</g>
<!-- 5957778400&#45;&gt;4573703584 -->
<g id="edge5" class="edge">
<title>5957778400&#45;&gt;4573703584</title>
<path fill="none" stroke="black" d="M163.5,-237.79C163.5,-229.6 163.5,-217.06 163.5,-206.55"/>
<polygon fill="black" stroke="black" points="167,-206.24 163.5,-196.24 160,-206.24 167,-206.24"/>
</g>
<!-- 5754996912 -->
<g id="node8" class="node">
<title>5754996912</title>
<polygon fill="lightblue" stroke="black" points="190.5,-330 136.5,-330 136.5,-299 190.5,-299 190.5,-330"/>
<text text-anchor="middle" x="163.5" y="-306" font-family="monospace" font-size="10.00"> (1)</text>
</g>
<!-- 5754996912&#45;&gt;5957778400 -->
<g id="edge6" class="edge">
<title>5754996912&#45;&gt;5957778400</title>
<path fill="none" stroke="black" d="M163.5,-298.75C163.5,-289.39 163.5,-277.19 163.5,-267.16"/>
<polygon fill="black" stroke="black" points="167,-267.02 163.5,-257.02 160,-267.02 167,-267.02"/>
</g>
</g>
</svg>
